<svg width="1200" height="1400" viewBox="0 0 1200 1400" fill="none" xmlns="http://www.w3.org/2000/svg">
  <rect width="1200" height="1400" rx="48" fill="#15120F"/>
  <rect x="92" y="100" width="1016" height="1200" rx="36" fill="#EADFCB"/>
  <path d="M214 1013C250 776 393 648 600 648C807 648 950 776 986 1013V1228H214V1013Z" fill="#6366F1"/>
  <circle cx="600" cy="430" r="205" fill="#DCCBB5"/>
  <path d="M322 414C376 226 512 139 697 179C847 211 945 328 954 487C862 419 759 384 645 384C526 384 419 394 322 414Z" fill="#D59A3D"/>
  <path d="M438 492C491 546 545 573 601 573C658 573 712 546 762 492" stroke="#15120F" stroke-width="34" stroke-linecap="round"/>
  <circle cx="526" cy="417" r="21" fill="#15120F"/>
  <circle cx="676" cy="417" r="21" fill="#15120F"/>
  <path d="M144 202H372" stroke="#6366F1" stroke-width="16" stroke-linecap="round"/>
  <path d="M828 1174H1056" stroke="#D59A3D" stroke-width="16" stroke-linecap="round"/>
</svg>
